<svg xmlns="http://www.w3.org/2000/svg" style="display: none;">
	<symbol id="loading" viewBox="0 0 24 24">
		<path class="opacity-75" fill="currentColor" d="M4 12a8 8 0 018-8V0C5.373 0 0 5.373 0 12h4zm2 5.291A7.962 7.962 0 014 12H0c0 3.042 1.135 5.824 3 7.938l3-2.647z">
		</path>
	</symbol>
	<symbol id="book-open-page" viewBox="0 0 24 24">
		<path d="m19 1-5 5v11l5-4.5V1m2 4v13.5c-1.1-.35-2.3-.5-3.5-.5-1.7 0-4.15.65-5.5 1.5V6c-1.45-1.1-3.55-1.5-5.5-1.5-1.95 0-4.05.4-5.5 1.5v14.65c0 .25.25.5.5.5.1 0 .15-.05.25-.05C3.1 20.45 5.05 20 6.5 20c1.95 0 4.05.4 5.5 1.5 1.35-.85 3.8-1.5 5.5-1.5 1.65 0 3.35.3 4.75 1.05.1.05.15.05.25.05.25 0 .5-.25.5-.5V6c-.6-.45-1.25-.75-2-1M10 18.41C8.75 18.09 7.5 18 6.5 18c-1.06 0-2.32.19-3.5.5V7.13c.91-.4 2.14-.63 3.5-.63 1.36 0 2.59.23 3.5.63v11.28Z" />
	</symbol>
	<symbol id="bookshelf" viewBox="0 0 24 24">
		<path d="M9 3v15h3V3H9m3 2 4 13 3-1-4-13-3 1M5 5v13h3V5H5M3 19v2h18v-2H3Z" />
	</symbol>
	<symbol id="book-plus-multiple" viewBox="0 0 24 24">
		<path d="M13.09 20H5V6H3v14a2 2 0 0 0 2 2h8.81a5.5 5.5 0 0 1-.72-2M19 2h-5v5l-2-1.5L10 7V2H9a2 2 0 0 0-2 2v12a2 2 0 0 0 2 2h4.09A6 6 0 0 1 21 13.34V4a2 2 0 0 0-2-2m1 13v3h3v2h-3v3h-2v-3h-3v-2h3v-3Z" />
	</symbol>
	<symbol id="ebook" viewBox="0 0 24 24">
		<path d="M15 12H5v1h10v-1zm-4 2H5v1h6v-1zm4-6H5v1h10V8zm0 2H5v1h10v-1zm0-6H5v1h10V4zm0 2H5v1h10V6zm7.44 10.277c.183-2.314-.433-2.54-3.288-5.322.171 1.223.528 3.397.911 5.001.089.382-.416.621-.586.215-.204-.495-.535-2.602-.82-4.72-.154-1.134-1.661-.995-1.657.177.005 1.822.003 3.341 0 6.041-.003 2.303 1.046 2.348 1.819 4.931.132.444.246.927.339 1.399L23 22.66c-1.339-2.621-.693-4.689-.56-6.383zM16.012 18H3V2h14v7.894c.646-.342 1.348-.274 1.877.101L19 9.977V1.5A1.5 1.5 0 0 0 17.5 0h-15A1.5 1.5 0 0 0 1 1.5v17A1.5 1.5 0 0 0 2.5 20h13.974c-.245-.515-.425-1.124-.462-2z" />
	</symbol>
	<symbol id="completed" viewBox="0 0 24 24">
		<path d="M12 2c5.514 0 10 4.486 10 10s-4.486 10-10 10S2 17.514 2 12 6.486 2 12 2zm0-2C5.373 0 0 5.373 0 12s5.373 12 12 12 12-5.373 12-12S18.627 0 12 0zm6.25 8.891-1.421-1.409-6.105 6.218-3.078-2.937-1.396 1.436 4.5 4.319 7.5-7.627z" />
	</symbol>
</svg>
